<svg width="200" height="200" viewBox="0 0 200 200" xmlns="http://www.w3.org/2000/svg">
  <!-- Background circle -->
  <circle cx="100" cy="100" r="90" fill="#f0f8ff" stroke="#2e8b57" stroke-width="2"/>
  
  <!-- Brain/AI representation -->
  <path d="M60 80 Q70 60, 90 70 Q110 50, 130 70 Q140 60, 140 80 Q150 90, 140 100 Q150 110, 140 120 Q140 140, 130 130 Q110 150, 90 130 Q70 140, 60 120 Q50 110, 60 100 Q50 90, 60 80 Z" 
        fill="#4169e1" opacity="0.8"/>
  
  <!-- Neural network nodes -->
  <circle cx="80" cy="85" r="4" fill="#ffffff"/>
  <circle cx="100" cy="75" r="4" fill="#ffffff"/>
  <circle cx="120" cy="85" r="4" fill="#ffffff"/>
  <circle cx="90" cy="100" r="4" fill="#ffffff"/>
  <circle cx="110" cy="100" r="4" fill="#ffffff"/>
  <circle cx="80" cy="115" r="4" fill="#ffffff"/>
  <circle cx="120" cy="115" r="4" fill="#ffffff"/>
  
  <!-- Neural connections -->
  <line x1="80" y1="85" x2="100" y2="75" stroke="#ffffff" stroke-width="1.5" opacity="0.7"/>
  <line x1="100" y1="75" x2="120" y2="85" stroke="#ffffff" stroke-width="1.5" opacity="0.7"/>
  <line x1="80" y1="85" x2="90" y2="100" stroke="#ffffff" stroke-width="1.5" opacity="0.7"/>
  <line x1="120" y1="85" x2="110" y2="100" stroke="#ffffff" stroke-width="1.5" opacity="0.7"/>
  <line x1="90" y1="100" x2="80" y2="115" stroke="#ffffff" stroke-width="1.5" opacity="0.7"/>
  <line x1="110" y1="100" x2="120" y2="115" stroke="#ffffff" stroke-width="1.5" opacity="0.7"/>
  
  <!-- Code brackets -->
  <text x="40" y="60" font-family="monospace" font-size="24" fill="#2e8b57" font-weight="bold">{</text>
  <text x="150" y="60" font-family="monospace" font-size="24" fill="#2e8b57" font-weight="bold">}</text>
  <text x="40" y="150" font-family="monospace" font-size="24" fill="#2e8b57" font-weight="bold">{</text>
  <text x="150" y="150" font-family="monospace" font-size="24" fill="#2e8b57" font-weight="bold">}</text>
  
  <!-- AI label -->
  <text x="100" y="170" text-anchor="middle" font-family="Arial, sans-serif" font-size="14" fill="#2e8b57" font-weight="bold">AI-FIRST</text>
</svg> 