<svg width="200" height="200" viewBox="0 0 200 200" xmlns="http://www.w3.org/2000/svg">
  <!-- Background circle -->
  <circle cx="100" cy="100" r="90" fill="#f0fff0" stroke="#228b22" stroke-width="2"/>
  
  <!-- Large checkmark -->
  <path d="M60 100 L85 125 L140 70" stroke="#228b22" stroke-width="8" fill="none" stroke-linecap="round" stroke-linejoin="round"/>
  
  <!-- Test grid background -->
  <g opacity="0.3">
    <!-- Grid lines -->
    <line x1="40" y1="40" x2="160" y2="40" stroke="#228b22" stroke-width="1"/>
    <line x1="40" y1="50" x2="160" y2="50" stroke="#228b22" stroke-width="1"/>
    <line x1="40" y1="60" x2="160" y2="60" stroke="#228b22" stroke-width="1"/>
    <line x1="40" y1="160" x2="160" y2="160" stroke="#228b22" stroke-width="1"/>
    <line x1="40" y1="150" x2="160" y2="150" stroke="#228b22" stroke-width="1"/>
    <line x1="40" y1="140" x2="160" y2="140" stroke="#228b22" stroke-width="1"/>
    
    <line x1="40" y1="40" x2="40" y2="160" stroke="#228b22" stroke-width="1"/>
    <line x1="50" y1="40" x2="50" y2="160" stroke="#228b22" stroke-width="1"/>
    <line x1="60" y1="40" x2="60" y2="160" stroke="#228b22" stroke-width="1"/>
    <line x1="140" y1="40" x2="140" y2="160" stroke="#228b22" stroke-width="1"/>
    <line x1="150" y1="40" x2="150" y2="160" stroke="#228b22" stroke-width="1"/>
    <line x1="160" y1="40" x2="160" y2="160" stroke="#228b22" stroke-width="1"/>
    
    <!-- Small checkmarks in grid -->
    <path d="M42 42 L46 46 L52 40" stroke="#228b22" stroke-width="1.5" fill="none"/>
    <path d="M52 42 L56 46 L62 40" stroke="#228b22" stroke-width="1.5" fill="none"/>
    <path d="M42 52 L46 56 L52 50" stroke="#228b22" stroke-width="1.5" fill="none"/>
    <path d="M142 142 L146 146 L152 140" stroke="#228b22" stroke-width="1.5" fill="none"/>
    <path d="M152 142 L156 146 L162 140" stroke="#228b22" stroke-width="1.5" fill="none"/>
    <path d="M142 152 L146 156 L152 150" stroke="#228b22" stroke-width="1.5" fill="none"/>
  </g>
  
  <!-- Version badge -->
  <rect x="120" y="25" width="35" height="20" rx="10" fill="#228b22"/>
  <text x="137.5" y="37" text-anchor="middle" font-family="Arial, sans-serif" font-size="10" fill="#ffffff" font-weight="bold">v2.0</text>
  
  <!-- Label -->
  <text x="100" y="180" text-anchor="middle" font-family="Arial, sans-serif" font-size="14" fill="#228b22" font-weight="bold">PRODUCTION</text>
</svg> 